<svg width="30" height="22" viewBox="0 0 30 22" fill="none" xmlns="http://www.w3.org/2000/svg">
<g clip-path="url(#clip0_441_1054)">
<path d="M0 13.6C0 6.9 4.1 1.8 11.7 0L13.7 2.6C8.9 4.2 6.8 6.2 6.8 8.6C6.8 10 7.5 10.6 9.5 11.3C10.9 11.9 12.9 13.3 12.9 16.1C12.9 19.2 10.4 21.8 6.8 21.8C2.9 21.8 0 18.3 0 13.6ZM16.2 13.6C16.2 6.9 20.5 1.8 28 0L30 2.6C25.3 4.2 23.1 6.1 23.1 8.5C23.1 9.9 23.8 10.5 25.8 11.2C27.2 11.8 29.2 13.2 29.2 16C29.2 19.1 26.6 21.7 23.1 21.7C19.1 21.8 16.2 18.3 16.2 13.6Z" fill="#77DADA"/>
</g>
<defs>
<clipPath id="clip0_441_1054">
<rect width="30" height="22" fill="white"/>
</clipPath>
</defs>
</svg>
